<svg xmlns="http://www.w3.org/2000/svg" xmlns:xlink="http://www.w3.org/1999/xlink" width="500" zoomAndPan="magnify" viewBox="0 0 375 374.999991" height="500" preserveAspectRatio="xMidYMid meet" version="1.0"><rect x="-37.5" width="450" fill="#ffffff" y="-37.499999" height="449.999989" fill-opacity="1"/><rect x="-37.5" width="450" fill="#ffffff" y="-37.499999" height="449.999989" fill-opacity="1"/><path stroke-linecap="butt" transform="matrix(-0.354686, 0.660831, -0.660831, -0.354686, 185.696169, 16.222089)" fill="none" stroke-linejoin="miter" d="M 0.680193 1.882443 C 57.921836 22.562398 115.165916 22.563964 172.402917 1.880427 " stroke="#000000" stroke-width="4" stroke-opacity="1" stroke-miterlimit="4"/><path stroke-linecap="butt" transform="matrix(0.348196, 0.664274, -0.664274, 0.348196, 194.948545, 9.835517)" fill="none" stroke-linejoin="miter" d="M 0.64474 16.496507 C 57.586276 -2.834639 114.532596 -2.834133 171.479087 16.495607 " stroke="#000000" stroke-width="4" stroke-opacity="1" stroke-miterlimit="4"/><path stroke-linecap="butt" transform="matrix(0, 0.75, -0.75, 0, 124.807571, 129.484561)" fill="none" stroke-linejoin="miter" d="M -0.00024813 1.998636 L 148.593512 1.998636 " stroke="#000000" stroke-width="4" stroke-opacity="1" stroke-miterlimit="4"/><path stroke-linecap="butt" transform="matrix(0, 0.75, -0.75, 0, 245.199905, 129.484561)" fill="none" stroke-linejoin="miter" d="M -0.00024813 2.000915 L 148.593512 2.000915 " stroke="#000000" stroke-width="4" stroke-opacity="1" stroke-miterlimit="4"/><path stroke-linecap="butt" transform="matrix(0.649519, -0.375, 0.375, 0.649519, 104.918561, 250.048109)" fill="none" stroke-linejoin="miter" d="M 1.002152 1.731393 C 11.087043 7.565936 19.860643 7.567533 27.313931 1.730976 " stroke="#000000" stroke-width="4" stroke-opacity="1" stroke-miterlimit="4"/><path stroke-linecap="butt" transform="matrix(0, 0.75, -0.75, 0, 107.710464, 250.803382)" fill="none" stroke-linejoin="miter" d="M 0.00174076 1.999369 L 65.887162 1.999369 " stroke="#000000" stroke-width="4" stroke-opacity="1" stroke-miterlimit="4"/><path stroke-linecap="butt" transform="matrix(0, 0.75, -0.75, 0, 263.724714, 250.803382)" fill="none" stroke-linejoin="miter" d="M 0.00174076 1.997536 L 65.887162 1.997536 " stroke="#000000" stroke-width="4" stroke-opacity="1" stroke-miterlimit="4"/><path stroke-linecap="butt" transform="matrix(0.661982, 0.352534, -0.352534, 0.661982, 243.685652, 239.43098)" fill="none" stroke-linejoin="miter" d="M 0.955246 1.755261 C 11.685725 7.58877 21.015077 7.589001 28.950349 1.758102 " stroke="#000000" stroke-width="4" stroke-opacity="1" stroke-miterlimit="4"/><path stroke-linecap="butt" transform="matrix(0.515419, 0.544834, -0.544834, 0.515419, 106.671266, 298.786329)" fill="none" stroke-linejoin="miter" d="M 0.96543 1.751035 C 29.295324 17.345312 57.627186 17.340355 85.961425 1.750889 " stroke="#000000" stroke-width="4" stroke-opacity="1" stroke-miterlimit="4"/><path stroke-linecap="butt" transform="matrix(0.74995, 0.00865961, -0.00865961, 0.74995, 156.317308, 344.400095)" fill="none" stroke-linejoin="miter" d="M 0.00103279 1.997911 L 72.005855 1.999867 " stroke="#000000" stroke-width="4" stroke-opacity="1" stroke-miterlimit="4"/><path stroke-linecap="butt" transform="matrix(0.522799, -0.537756, 0.537756, 0.522799, 216.370317, 345.499489)" fill="none" stroke-linejoin="miter" d="M 0.962625 1.753267 C 29.280317 17.342213 57.600583 17.340149 85.919687 1.750705 " stroke="#000000" stroke-width="4" stroke-opacity="1" stroke-miterlimit="4"/></svg>